<svg xmlns="http://www.w3.org/2000/svg" version="1.1" xmlns:xlink="http://www.w3.org/1999/xlink" width="512" height="512" x="0" y="0" viewBox="0 0 24 24" style="enable-background:new 0 0 512 512" xml:space="preserve" class=""><g><path d="M12 0a12 12 0 1 0 12 12A12.013 12.013 0 0 0 12 0Zm8.941 11h-3.478a18.368 18.368 0 0 0-2.289-7.411A9.013 9.013 0 0 1 20.941 11ZM9.685 14h4.63A16.946 16.946 0 0 1 12 19.9 16.938 16.938 0 0 1 9.685 14Zm-.132-3A16.246 16.246 0 0 1 12 4.1a16.241 16.241 0 0 1 2.447 6.9Zm-.727-7.411A18.368 18.368 0 0 0 6.537 11H3.059a9.013 9.013 0 0 1 5.767-7.411ZM3.232 14h3.409a18.906 18.906 0 0 0 2.185 6.411A9.021 9.021 0 0 1 3.232 14Zm11.942 6.411A18.884 18.884 0 0 0 17.359 14h3.409a9.021 9.021 0 0 1-5.594 6.411Z" fill="#ffffff" opacity="1" data-original="#000000" class=""></path></g></svg>